# xmcd
#
# Track frame offsets: 
#        150
#        17250
#        36037
#        52525
#        71700
#        93225
#        114125
#        133950
#        145725
#        160750
#        185650
#        199900
#        216900
#
# Disc length: 3053 seconds
#
# Revision: 0
# Processed by: cddbd v1.5.1PL2 Copyright (c) Steve Scherf et al.
# Submitted via: ExactAudioCopy v0.95b4
#
DISCID=ac0beb0d
DTITLE=Willie G - Fresh Cut
DYEAR=2003
DGENRE=Blues
TTITLE0=Blues Singer
TTITLE1=P.T.L.
TTITLE2=Midnight
TTITLE3=Running
TTITLE4=Missing You
TTITLE5=We All Get The Blues
TTITLE6=Find A Doctor
TTITLE7=Stone Crazy
TTITLE8=Regrets
TTITLE9=This Morning
TTITLE10=Guilty
TTITLE11=Drifted
TTITLE12=Back To Your Momma
EXTD=
EXTT0=
EXTT1=
EXTT2=
EXTT3=
EXTT4=
EXTT5=
EXTT6=
EXTT7=
EXTT8=
EXTT9=
EXTT10=
EXTT11=
EXTT12=
PLAYORDER=
